<svg id="e0b1d117-b263-4b4e-aaf9-05278caa843d" data-name="Layer 1" xmlns="http://www.w3.org/2000/svg" xmlns:xlink="http://www.w3.org/1999/xlink" viewBox="0 0 841.9 509.6">
  <defs>
    <radialGradient id="a22ca24c-6aca-41cf-8b4e-b9aaba621f81" cx="391" cy="250.75" r="199.97" gradientUnits="userSpaceOnUse">
      <stop offset="0" stop-color="#002741"/>
      <stop offset="0.05" stop-color="#00263f"/>
      <stop offset="0.41" stop-color="#002036"/>
      <stop offset="0.48" stop-color="#001a2c"/>
      <stop offset="0.67" stop-color="#000c14"/>
      <stop offset="0.85" stop-color="#000305"/>
      <stop offset="1"/>
    </radialGradient>
    <linearGradient id="b84ae5e7-6631-4eec-a89c-c4064e9868c4" x1="635.81" y1="278.06" x2="715.67" y2="256.07" gradientUnits="userSpaceOnUse">
      <stop offset="0" stop-color="#002741"/>
      <stop offset="1"/>
    </linearGradient>
    <linearGradient id="f17cf572-70b1-45b2-a310-d1459f03a331" x1="819.49" y1="272.48" x2="819.49" y2="214.31" gradientTransform="matrix(1, 0, -0.01, 1.01, -0.26, -1.87)" gradientUnits="userSpaceOnUse">
      <stop offset="0" stop-color="#e8da5e"/>
      <stop offset="1" stop-color="#927600"/>
    </linearGradient>
    <linearGradient id="e87698b3-eb16-47fa-be63-00b0d0bd6985" x1="779.54" y1="273.41" x2="779.54" y2="214.6" xlink:href="#f17cf572-70b1-45b2-a310-d1459f03a331"/>
    <linearGradient id="b8bcf9e0-496a-4cc8-abcc-966566914858" x1="637.74" y1="285.08" x2="717.6" y2="263.08" xlink:href="#b84ae5e7-6631-4eec-a89c-c4064e9868c4"/>
    <linearGradient id="afa852b7-ddb9-4c55-88b2-cc6c93c5775e" x1="736.66" y1="273.71" x2="736.66" y2="214.31" xlink:href="#f17cf572-70b1-45b2-a310-d1459f03a331"/>
    <linearGradient id="e17d9da6-d93a-432c-a51c-f5da1a0dd652" x1="641.96" y1="300.38" x2="721.81" y2="278.39" xlink:href="#b84ae5e7-6631-4eec-a89c-c4064e9868c4"/>
    <linearGradient id="a2a3c6c9-8f3f-4720-9a20-4cf28f38fb22" x1="644.16" y1="308.38" x2="724.01" y2="286.39" xlink:href="#b84ae5e7-6631-4eec-a89c-c4064e9868c4"/>
    <linearGradient id="f89fcd73-0281-4431-b3d3-16506a3ed19c" x1="712.35" y1="273.79" x2="712.35" y2="212.87" xlink:href="#f17cf572-70b1-45b2-a310-d1459f03a331"/>
    <linearGradient id="f84f505c-0f1f-4e11-9085-f99919e7c073" x1="692.82" y1="284.92" x2="692.82" y2="226.27" xlink:href="#f17cf572-70b1-45b2-a310-d1459f03a331"/>
    <linearGradient id="b0ed3c42-f5e6-4e97-a0b8-432369522f2e" x1="645.85" y1="314.52" x2="725.71" y2="292.53" xlink:href="#b84ae5e7-6631-4eec-a89c-c4064e9868c4"/>
    <linearGradient id="f9a41905-cc93-4ad4-bfcd-89f20284b83d" x1="570.5" y1="417.08" x2="689.5" y2="417.08" xlink:href="#b84ae5e7-6631-4eec-a89c-c4064e9868c4"/>
    <linearGradient id="f72c6241-d46a-406d-8131-fc047be04b20" x1="666.8" y1="471" x2="782.3" y2="443" xlink:href="#b84ae5e7-6631-4eec-a89c-c4064e9868c4"/>
    <linearGradient id="ae82aacc-cfbe-481d-81a2-d5457d950fca" x1="852.96" y1="530.02" x2="798.96" y2="426.52" xlink:href="#b84ae5e7-6631-4eec-a89c-c4064e9868c4"/>
    <linearGradient id="a3ec4ebc-12bc-4972-87f9-80d7d37136f5" x1="774.42" y1="339.36" x2="751.43" y2="306.36" xlink:href="#b84ae5e7-6631-4eec-a89c-c4064e9868c4"/>
    <linearGradient id="b8f77b7c-8163-42c2-8c95-deda2cd6f2d4" x1="473.33" y1="340.04" x2="490.82" y2="340.04" xlink:href="#b84ae5e7-6631-4eec-a89c-c4064e9868c4"/>
    <linearGradient id="aaaa5baa-b37a-4e52-bca6-baf669ea9ae6" x1="495.42" y1="357.48" x2="473.6" y2="351.53" xlink:href="#b84ae5e7-6631-4eec-a89c-c4064e9868c4"/>
    <linearGradient id="adc201d7-ea60-4373-9224-53b1482c589e" x1="446.7" y1="383.1" x2="489.42" y2="379.44" xlink:href="#b84ae5e7-6631-4eec-a89c-c4064e9868c4"/>
    <linearGradient id="aba226bd-a078-4845-b50b-317e12752d70" x1="395.3" y1="390.56" x2="549.97" y2="379.23" xlink:href="#b84ae5e7-6631-4eec-a89c-c4064e9868c4"/>
    <linearGradient id="aebac48c-a493-489c-af16-003581a2564e" x1="537.14" y1="335.9" x2="527.47" y2="259.9" xlink:href="#b84ae5e7-6631-4eec-a89c-c4064e9868c4"/>
    <linearGradient id="ebb9c3a7-86c5-4d97-a0db-f0eec084ea06" x1="498.23" y1="234.94" x2="551.73" y2="228.94" xlink:href="#b84ae5e7-6631-4eec-a89c-c4064e9868c4"/>
    <linearGradient id="b5622118-a531-4bb7-bb4d-3597f6bf1e3d" x1="592.5" y1="197.14" x2="649.67" y2="197.14" xlink:href="#b84ae5e7-6631-4eec-a89c-c4064e9868c4"/>
    <linearGradient id="b5a3a4ed-db26-41fa-8fd9-b636a5693853" x1="647.22" y1="231.83" x2="612.72" y2="188.83" xlink:href="#b84ae5e7-6631-4eec-a89c-c4064e9868c4"/>
    <linearGradient id="a2fff29f-2b15-4105-877d-ea6929ea8c27" x1="550" y1="285.77" x2="647" y2="285.77" xlink:href="#b84ae5e7-6631-4eec-a89c-c4064e9868c4"/>
    <linearGradient id="ab31bee1-e866-49b5-8f80-20f83351f4d3" x1="570.99" y1="216.82" x2="612.49" y2="217.32" xlink:href="#b84ae5e7-6631-4eec-a89c-c4064e9868c4"/>
    <linearGradient id="be795ef8-349a-4c2b-bdf0-d6ae3d48a51b" x1="551.51" y1="274.52" x2="609.51" y2="275.02" xlink:href="#b84ae5e7-6631-4eec-a89c-c4064e9868c4"/>
    <linearGradient id="a469b331-e0eb-4340-820a-4f77438ab6ef" x1="622.25" y1="335.27" x2="636.5" y2="335.27" gradientTransform="matrix(1, 0, 0, 1, 0, 0)" xlink:href="#f17cf572-70b1-45b2-a310-d1459f03a331"/>
    <linearGradient id="ea1d9b26-0cc8-466b-b5e6-4ef9d5624eed" x1="649.57" y1="203.32" x2="678.73" y2="200.49" xlink:href="#b84ae5e7-6631-4eec-a89c-c4064e9868c4"/>
    <linearGradient id="b59e0cb9-6240-4a04-9fcd-8f0227406ae2" x1="663.51" y1="186.26" x2="695.67" y2="183.1" xlink:href="#b84ae5e7-6631-4eec-a89c-c4064e9868c4"/>
    <linearGradient id="bea0cc94-647b-42d0-befd-c3f8fb060ad6" x1="690.19" y1="167.06" x2="711.53" y2="166.56" xlink:href="#b84ae5e7-6631-4eec-a89c-c4064e9868c4"/>
    <linearGradient id="e5cd6235-07ad-4853-a7e0-fc58c2bab052" x1="712.06" y1="94.42" x2="754.9" y2="116.09" xlink:href="#b84ae5e7-6631-4eec-a89c-c4064e9868c4"/>
    <linearGradient id="b73915b3-345d-4256-acc0-249214a0f574" x1="719.16" y1="194.71" x2="759.75" y2="155.69" xlink:href="#b84ae5e7-6631-4eec-a89c-c4064e9868c4"/>
    <linearGradient id="a8fc670d-3397-4ba3-a647-735d0b76be4b" x1="831.42" y1="130" x2="753.53" y2="159.3" xlink:href="#b84ae5e7-6631-4eec-a89c-c4064e9868c4"/>
    <linearGradient id="b1e62de7-fe6b-4020-b356-62195d7ee65a" x1="703.17" y1="148.56" x2="818.05" y2="119.88" xlink:href="#b84ae5e7-6631-4eec-a89c-c4064e9868c4"/>
    <linearGradient id="a37b5b92-ab95-448c-8d12-4700b3caa3f5" x1="692.68" y1="145.82" x2="726.69" y2="145.35" xlink:href="#b84ae5e7-6631-4eec-a89c-c4064e9868c4"/>
    <linearGradient id="a9bbbed5-a1e5-433a-bcc2-f890c9d2c6ab" x1="719.85" y1="222.97" x2="632.01" y2="223.81" xlink:href="#b84ae5e7-6631-4eec-a89c-c4064e9868c4"/>
    <linearGradient id="e5e02b8d-247b-4bd9-b92f-8f4ccd7c1d1b" x1="738.19" y1="237.82" x2="665.52" y2="238.15" xlink:href="#b84ae5e7-6631-4eec-a89c-c4064e9868c4"/>
    <linearGradient id="ab1e80e2-8c26-4e5a-b217-1a9b316204c4" x1="547.19" y1="183.1" x2="550.69" y2="201.6" xlink:href="#b84ae5e7-6631-4eec-a89c-c4064e9868c4"/>
    <linearGradient id="b0ee0f82-e020-4178-984e-66be4de1a6ec" x1="541.43" y1="187.3" x2="538.47" y2="221.52" xlink:href="#b84ae5e7-6631-4eec-a89c-c4064e9868c4"/>
    <linearGradient id="bbe9cacf-9b2a-4226-9e24-6c0244c90706" x1="568.34" y1="185.73" x2="578.37" y2="204.68" xlink:href="#b84ae5e7-6631-4eec-a89c-c4064e9868c4"/>
    <linearGradient id="bd89a7c3-f530-4408-9af4-cd68b8ef8723" x1="534.98" y1="330.51" x2="535.12" y2="314.82" xlink:href="#b84ae5e7-6631-4eec-a89c-c4064e9868c4"/>
    <linearGradient id="a528b6ff-a36e-41ef-8afd-61780a7f23da" x1="535.18" y1="329.33" x2="535.32" y2="306.91" xlink:href="#b84ae5e7-6631-4eec-a89c-c4064e9868c4"/>
    <linearGradient id="b31825ba-1972-4d52-b2c1-86b58b3c626d" x1="782.87" y1="466.11" x2="773.37" y2="388.1" xlink:href="#b84ae5e7-6631-4eec-a89c-c4064e9868c4"/>
    <linearGradient id="f7407b8f-3282-4fb7-acca-a38e4eb4b1c4" x1="668.14" y1="407.35" x2="792.64" y2="389.35" xlink:href="#b84ae5e7-6631-4eec-a89c-c4064e9868c4"/>
    <linearGradient id="bcfb0ea6-daf4-45b2-9b0d-4b190dcedd6f" x1="336.32" y1="371.18" x2="343.87" y2="371.18" gradientTransform="matrix(1, 0, 0, 1, 0, 0)" xlink:href="#f17cf572-70b1-45b2-a310-d1459f03a331"/>
    <linearGradient id="ac149362-0ea7-4d5b-a661-ee0496eef487" x1="325.13" y1="397.46" x2="332.68" y2="397.46" gradientTransform="matrix(1, 0, 0, 1, 0, 0)" xlink:href="#f17cf572-70b1-45b2-a310-d1459f03a331"/>
    <linearGradient id="abfc3e10-8b31-459b-bb52-f962c70809c0" x1="329.58" y1="359.22" x2="334.9" y2="328.75" xlink:href="#b84ae5e7-6631-4eec-a89c-c4064e9868c4"/>
    <linearGradient id="afda62f7-fa74-4165-a8d6-a9119d5d6b35" x1="327.37" y1="343.32" x2="331.22" y2="343.32" gradientTransform="matrix(1, 0, 0, 1, 0, 0)" xlink:href="#f17cf572-70b1-45b2-a310-d1459f03a331"/>
    <linearGradient id="f8374e50-22a0-4a35-aa1d-115bd0ff4b0c" x1="244.6" y1="300.99" x2="250.75" y2="300.99" gradientTransform="matrix(1, 0, 0, 1, 0, 0)" xlink:href="#f17cf572-70b1-45b2-a310-d1459f03a331"/>
    <linearGradient id="fe81a38c-b751-4d15-b7c0-3298aa382921" x1="247.39" y1="308.56" x2="247.39" y2="366.56" xlink:href="#b84ae5e7-6631-4eec-a89c-c4064e9868c4"/>
    <linearGradient id="eb3b9860-d155-4d6b-b81f-652fc35e2451" x1="240.09" y1="308.56" x2="240.09" y2="366.56" xlink:href="#b84ae5e7-6631-4eec-a89c-c4064e9868c4"/>
    <linearGradient id="b581d0f0-9484-4780-b837-96f115331c15" x1="223.77" y1="584.17" x2="294.62" y2="305.4" xlink:href="#b84ae5e7-6631-4eec-a89c-c4064e9868c4"/>
    <linearGradient id="b52dd80f-24c7-47f0-952c-a19dabfa08e8" x1="307.81" y1="351.87" x2="268.48" y2="320.2" xlink:href="#b84ae5e7-6631-4eec-a89c-c4064e9868c4"/>
    <linearGradient id="efae2d62-3679-41f5-916d-f09d17bd447c" x1="267.73" y1="352.51" x2="282.73" y2="339.51" xlink:href="#b84ae5e7-6631-4eec-a89c-c4064e9868c4"/>
    <linearGradient id="b1520fa1-20c6-4157-8ca3-fe4c3e27595f" x1="263.89" y1="360.27" x2="270.6" y2="360.27" gradientTransform="matrix(1, 0, 0, 1, 0, 0)" xlink:href="#f17cf572-70b1-45b2-a310-d1459f03a331"/>
    <linearGradient id="bac490b1-4bc9-4bbf-881e-eb6d25683b8e" x1="284.03" y1="370.54" x2="289.62" y2="370.54" gradientTransform="matrix(1, 0, 0, 1, 0, 0)" xlink:href="#f17cf572-70b1-45b2-a310-d1459f03a331"/>
    <linearGradient id="b8fcd9ee-2f4a-465f-9d95-7bfec3c85373" x1="262.62" y1="384.58" x2="269.33" y2="384.58" gradientTransform="matrix(1, 0, 0, 1, 0, 0)" xlink:href="#f17cf572-70b1-45b2-a310-d1459f03a331"/>
    <linearGradient id="edee2db6-a8b7-4c47-b0c4-88114253846a" x1="285.98" y1="320.98" x2="289.62" y2="320.98" gradientTransform="matrix(1, 0, 0, 1, 0, 0)" xlink:href="#f17cf572-70b1-45b2-a310-d1459f03a331"/>
    <linearGradient id="f96a71ec-58f2-458c-801e-e6d98c34952b" x1="280.04" y1="315.25" x2="283.47" y2="315.25" gradientTransform="matrix(1, 0, 0, 1, 0, 0)" xlink:href="#f17cf572-70b1-45b2-a310-d1459f03a331"/>
    <linearGradient id="b185a593-18ce-44b9-ac72-c3cc15235566" x1="160.58" y1="299.76" x2="90.5" y2="266.1" gradientTransform="matrix(1, 0, 0.04, 1, -9.85, 0)" xlink:href="#f17cf572-70b1-45b2-a310-d1459f03a331"/>
    <linearGradient id="b737f47d-a2ee-4d5e-969a-77fe4c4533cb" x1="192.48" y1="325.7" x2="127.11" y2="294.29" gradientTransform="matrix(1, 0, 0.04, 1, -9.85, 0)" xlink:href="#f17cf572-70b1-45b2-a310-d1459f03a331"/>
    <linearGradient id="ab58fda0-785a-4f71-82ab-17b780d79f3d" x1="66.06" y1="217.94" x2="96.57" y2="280.55" gradientTransform="matrix(1, 0, 0, 1, 0, 0)" xlink:href="#f17cf572-70b1-45b2-a310-d1459f03a331"/>
    <linearGradient id="e47587e0-7ed0-4881-988f-c7c2203f0305" x1="243.95" y1="370.31" x2="-18.51" y2="244.23" xlink:href="#b84ae5e7-6631-4eec-a89c-c4064e9868c4"/>
    <linearGradient id="ab87a169-d652-4d27-ae76-ede7ea7314cb" x1="212.97" y1="336.34" x2="188.92" y2="324.79" gradientTransform="matrix(1, 0, -0.02, 1, 7.81, 0)" xlink:href="#f17cf572-70b1-45b2-a310-d1459f03a331"/>
    <linearGradient id="bcfae93a-ed38-48da-af96-b8d6bc333409" x1="212.97" y1="361.68" x2="188.92" y2="350.12" gradientTransform="matrix(1, 0, -0.02, 1, 7.81, 0)" xlink:href="#f17cf572-70b1-45b2-a310-d1459f03a331"/>
    <linearGradient id="bf3f339b-99c3-42d9-9f0f-c74567817f16" x1="212.97" y1="385.68" x2="188.92" y2="374.12" gradientTransform="matrix(1, 0, -0.02, 1, 7.81, 0)" xlink:href="#f17cf572-70b1-45b2-a310-d1459f03a331"/>
    <linearGradient id="e5f10626-d8b0-45ce-b94e-ab46608577e2" x1="84.28" y1="596.64" x2="100.28" y2="374.64" xlink:href="#b84ae5e7-6631-4eec-a89c-c4064e9868c4"/>
    <linearGradient id="b83434d8-778b-4552-bbe0-3577fcb491f4" x1="113.18" y1="160.92" x2="96.05" y2="467.71" xlink:href="#b84ae5e7-6631-4eec-a89c-c4064e9868c4"/>
  </defs>
  <title>Artboard 1</title>
  <g>
    <path d="M752.6,0,708.7,71.9a53.9,53.9,0,0,1-.4-6.3,9.5,9.5,0,0,0-2.6-6l.3-9.4-28,.7-11,24,10.3,3.3V92.6l-5.6,10.3,4,1.3-6.4,37.7a48.1,48.1,0,0,0-6.6,6.7c-4.4,5-3,7-3,7v11.3l-6.4,1.7v8c0,4.3,2.7,5.3,2.7,5.3l-6.3,3.7-21-.7-14.4,5.3-30.6-.3-10.4-3.3.2-4.2-7.7-2-25.1.2-5.7,2v3.6c-18.3,5.7-20.3,17.7-20.3,17.7l-7,1.3-3.7,8,4,2.7,5.7.3v41l-2,3h-4.4l-6,9.7,8,4v45.3l-18.5,16.9-17.5-.2-11.3,12,.3,4.9-3.8,3.7v1.4h4.4l-.2,9.5L444,379.9v12.4l-7.3-.4-6,4-10,6v12h-64V369.2l12.6-11.3s-7.3.7-9.3-2.7l-2.7-2c-2.6-2-11.5-14.9-11.5-14.9v-7.5l-5.8-1.6v-6l-17.4-1.4-.8,12.3-10.5-25.5-8.6-3.4H285.3l-24-14.6v-12l5.4-1.4-22-28.6-7.4,1.3,1.4-10.7L230,223.9l-30.7-4-46.6-76-55.4,1.3L80,123.9l-10,1.3L0,64.6V504.4l356.5-60.5h65.8l419.6,65.7V0Z" style="fill: url(#a22ca24c-6aca-41cf-8b4e-b9aaba621f81)"/>
    <polygon points="813.7 175.2 784.9 195.3 794.5 288.2 804.6 283.2 794.4 197.8 815.1 183.2 813.7 175.2" style="fill: url(#b84ae5e7-6631-4eec-a89c-c4064e9868c4)"/>
    <polygon points="816.5 189.3 805.4 197.3 814.9 278.2 826.2 271.6 816.5 189.3" style="fill: url(#f17cf572-70b1-45b2-a310-d1459f03a331)"/>
    <polygon points="774.6 218.4 768.5 222.4 775.9 295.7 782.5 292.5 774.6 218.4" style="fill: url(#e87698b3-eb16-47fa-be63-00b0d0bd6985)"/>
    <path d="M773.8,201.3l.4,9.1-16.2,12,8.4,77.9-8.1,3.6-8.2-87.5a25.6,25.6,0,0,1,10.2-16.1C769.4,193.8,773.8,201.3,773.8,201.3Z" style="fill: url(#b8bcf9e0-496a-4cc8-abcc-966566914858)"/>
    <polygon points="732.7 245.5 726.9 249.8 731.1 315.5 737.7 312.6 732.7 245.5" style="opacity: 0.46;fill: url(#afa852b7-ddb9-4c55-88b2-cc6c93c5775e)"/>
    <polygon points="732.4 233.5 715.1 248.5 720.2 320.9 725.2 318.3 721.6 250 731.7 241.5 732.4 233.5" style="fill: url(#e17d9da6-d93a-432c-a51c-f5da1a0dd652)"/>
    <polygon points="707.5 259.6 697.9 266.6 702.1 329.2 695 332.4 691.4 264.1 707.1 253 707.5 259.6" style="fill: url(#a2a3c6c9-8f3f-4720-9a20-4cf28f38fb22)"/>
    <polygon points="707.2 264.8 703.9 266.7 707.6 326.6 711.6 324.6 707.2 264.8" style="fill: url(#f89fcd73-0281-4431-b3d3-16506a3ed19c)"/>
    <polygon points="688.1 276.5 684.8 278.4 687.2 336 691.3 333.9 688.1 276.5" style="fill: url(#f84f505c-0f1f-4e11-9085-f99919e7c073)"/>
    <polygon points="684.9 336.9 682.2 278.3 687.7 274.1 687.2 269.1 676.1 276.6 679.2 339.4 684.9 336.9" style="fill: url(#b0ed3c42-f5e6-4e97-a0b8-432369522f2e)"/>
    <polygon points="678 482.8 672.7 365 732 341.5 740.8 492.7 678 482.8" style="fill: url(#f9a41905-cc93-4ad4-bfcd-89f20284b83d)"/>
    <polygon points="740.8 492.7 773.5 487.4 770.5 408.4 736.1 411.9 740.8 492.7" style="fill: url(#f72c6241-d46a-406d-8131-fc047be04b20)"/>
    <polygon points="773.5 487.4 841.9 493.9 841.9 399.1 770.5 408.4 773.5 487.4" style="fill: url(#ae82aacc-cfbe-481d-81a2-d5457d950fca)"/>
    <polygon points="664.5 349.4 671.7 349.9 841.9 274.9 841.9 268.4 664.5 349.4" style="fill: url(#a3ec4ebc-12bc-4972-87f9-80d7d37136f5)"/>
    <polygon points="473.3 335.9 473.3 344 490.8 344.2 490.8 335.9 473.3 335.9" style="fill: url(#b8f77b7c-8163-42c2-8c95-deda2cd6f2d4)"/>
    <polygon points="482.6 347.2 489.7 347.2 490.8 345.9 473.5 345.6 458.7 357.8 467.7 358.1 482.6 347.2" style="fill: url(#aaaa5baa-b37a-4e52-bca6-baf669ea9ae6)"/>
    <polygon points="482.6 347.2 483.6 412.1 490.8 412.1 489.7 347.2 482.6 347.2" style="fill: url(#adc201d7-ea60-4373-9224-53b1482c589e)"/>
    <polygon points="468.5 368.1 468.5 387.3 470.1 386.5 470.1 367.3 468.5 368.1" style="fill: #987e2e"/>
    <polygon points="472.8 365.9 472.8 385.8 474.4 385 474.4 365 472.8 365.9" style="fill: #987e2e;opacity: 0.42"/>
    <polygon points="477.3 363.1 477.3 383.6 478.9 382.8 478.9 362.1 477.3 363.1" style="fill: #987e2e;opacity: 0.42"/>
    <polygon points="468.4 395.8 468.4 414.9 470 414.2 470 395 468.4 395.8" style="fill: #987e2e;opacity: 0.42"/>
    <polygon points="472.7 393.8 472.7 413.7 474.3 413 474.3 393 472.7 393.8" style="fill: #987e2e"/>
    <polygon points="477.2 391.2 477.2 412.3 478.9 411.8 478.9 390.4 477.2 391.2" style="fill: #987e2e"/>
    <polygon points="490.8 344.2 490.8 335.9 511.2 317.6 528.3 314.2 561.2 300.6 566.5 300.4 569 388.9 528.8 401.9 529.7 458.6 492.1 451.8 489.5 347.7 491 345.7 490.8 344.2" style="fill: url(#aba226bd-a078-4845-b50b-317e12752d70)"/>
    <polygon points="504.8 341.9 508 339.9 508.3 364.6 505.2 366.1 504.8 341.9" style="fill: #987e2e"/>
    <polygon points="511.7 338 514.8 335.9 515.2 361.5 512 363.1 511.7 338" style="fill: #987e2e"/>
    <polygon points="518.7 333.4 521.8 331.2 522.2 357.9 519 359.6 518.7 333.4" style="fill: #987e2e"/>
    <polygon points="504.8 370.2 508.2 368.7 508.6 395 505.2 396.4 504.8 370.2" style="fill: #987e2e"/>
    <polygon points="512 367.4 515.2 365.9 515.5 392.4 512.3 393.7 512 367.4" style="fill: #987e2e"/>
    <polygon points="518.9 364.1 521.9 362.6 522.2 389.4 519.2 390.7 518.9 364.1" style="fill: #987e2e"/>
    <polygon points="509.3 273.9 509.3 265.9 538.3 263.1 551.8 263.9 551.8 299.7 548.3 302.9 509.8 304.2 509.2 303.6 509.3 273.9" style="fill: url(#aebac48c-a493-489c-af16-003581a2564e)"/>
    <polygon points="513.7 216.2 517.3 209.2 539.2 206.7 570 206.2 570.8 222.7 552.2 226.6 553.5 246.6 548.7 252.9 514.2 255.1 513.7 216.2" style="fill: url(#ebb9c3a7-86c5-4d97-a0db-f0eec084ea06)"/>
    <polygon points="520.5 217.1 521 241.7 534.3 240.6 534.2 215.4 520.5 217.1" style="fill: #987e2e;opacity: 0.44"/>
    <polygon points="542.7 226.9 542.7 214.4 560.8 214.6 560.8 221.2 542.7 226.9" style="fill: #987e2e"/>
    <polygon points="560.3 321.1 561.5 367.1 558.3 368.6 557.3 323.4 560.3 321.1" style="fill: #987e2e"/>
    <polygon points="550 326.6 551.2 372.6 548 374.1 547 328.9 550 326.6" style="fill: #c2ab34"/>
    <polygon points="540.2 331.1 541.3 377.1 538.2 378.6 537.2 333.4 540.2 331.1" style="fill: #987e2e"/>
    <polygon points="592.5 205.4 598.5 194.6 628.7 184.9 649.7 185.6 649.3 188.9 629.5 188.4 600.3 197.9 592.8 209.4 592.5 205.4" style="fill: url(#b5622118-a531-4bb7-bb4d-3597f6bf1e3d)"/>
    <polygon points="592.8 209.4 598 210.6 604.3 202.4 629.3 193.4 646.5 193.4 649.3 188.9 629.5 188.4 600.3 197.9 592.8 209.4" style="fill: url(#b5a3a4ed-db26-41fa-8fd9-b636a5693853)"/>
    <polygon points="598 210.6 605 378.1 625.5 372.1 646.5 371.4 655.5 363.9 646.5 193.4 629.3 193.4 604.3 202.4 598 210.6" style="fill: url(#a2fff29f-2b15-4105-877d-ea6929ea8c27)"/>
    <path d="M605.5,258.4l4.5-3.5,2,49.7s-5.5,2.8-4.7,2S605.5,258.4,605.5,258.4Z" style="fill: #a88e31"/>
    <polygon points="620.5 251.1 631 248.1 634 299.6 622.5 301.6 620.5 251.1" style="fill: #e7d95c;opacity: 0.59"/>
    <polygon points="604 232.4 603.3 219.9 606.5 216.6 607.5 229.9 604 232.4" style="fill: #e7d95c"/>
    <polygon points="616.5 214.1 617.5 226.9 627.8 224.6 626.5 211.9 616.5 214.1" style="fill: #e7d95c;opacity: 0.26"/>
    <polygon points="626.5 211.9 626 205.9 610.8 210.4 612.3 228.9 617.5 226.9 616.5 214.1 626.5 211.9" style="fill: url(#ab31bee1-e866-49b5-8f80-20f83351f4d3)"/>
    <polygon points="622.5 301.6 617.5 303.4 614.8 251.1 631.3 246.9 631 248.1 620.5 251.1 622.5 301.6" style="fill: url(#be795ef8-349a-4c2b-bdf0-d6ae3d48a51b)"/>
    <polygon points="612.5 320.4 614 355.9 608.3 358.1 606.8 322.6 612.5 320.4" style="fill: #bba430"/>
    <polygon points="622.3 319.9 623.3 352.9 636.5 351.6 635 317.6 622.3 319.9" style="fill: url(#a469b331-e0eb-4340-820a-4f77438ab6ef)"/>
    <path d="M683.8,225.7l-4.1-41.1s-.2-3.8-2-5.6c-2.3,2.6-4.1,11-2.8,23.1s2.8,23.9,2.8,23.9Z" style="fill: #a18730"/>
    <path d="M677.7,226s-5.9-38.8,0-47c-.8-3.3-5.3-6.3-7.1,1.3s-1.8,24.1,1.1,45C676,225.3,677.7,226,677.7,226Z" style="fill: url(#ea1d9b26-0cc8-466b-b5e6-4ef9d5624eed)"/>
    <path d="M704.5,212.6v-.8l-5.9-51.3s-.8-3.3-1.8-4.5c-4,2.7-5.3,15.2-4,28.1s3.3,30.2,3.3,30.2Z" style="fill: #987e2e"/>
    <path d="M696.7,156s-5.1-8.4-8.4,0-5,18.5-2.5,39.8c2,15.5,2.5,19,2.5,19l7.7-.5L692.1,178S691.4,161.5,696.7,156Z" style="fill: url(#b59e0cb9-6240-4a04-9fcd-8f0227406ae2)"/>
    <path d="M716.8,200.1l-5.6-45.7s-2.1-14.9,6.1-21.3c1.7,13.5,7.1,61.2,7.1,61.2Z" style="fill: #a18730;opacity: 0.77"/>
    <path d="M710.2,206.4l6.6-6.3-5.9-48.2s-.7-13.7,6.4-18.8c-.5-3-1-8.6-5.4-5.6s-9.1,15.8-7.1,31.8S710.2,206.4,710.2,206.4Z" style="fill: url(#bea0cc94-647b-42d0-befd-c3f8fb060ad6)"/>
    <path d="M738.6,138.4l-2.3-22s-4.1-19.6,11.2-31.7c4.8-3.3,7.6,2.5,7.6,2.5s-13.2,7.1-11.7,26.9c1.3,9.9,2.5,21,2.5,21l-4.3,1.1Z" style="fill: url(#e5cd6235-07ad-4853-a7e0-fc58c2bab052)"/>
    <path d="M755.1,87.2s2.3,2,4.3,18.3,3.3,29.9,3.3,29.9l-16.8-.3s-3.8-21.5-1.7-32.2S755.1,87.2,755.1,87.2Z" style="fill: #93782d"/>
    <polygon points="703.8 174.7 741.4 135.1 818.2 134.9 818.5 137.4 742.4 137.7 704.1 177.5 703.8 174.7" style="fill: url(#b73915b3-345d-4256-acc0-249214a0f574)"/>
    <polygon points="704.1 177.5 769 179.3 818.5 137.4 742.4 137.7 704.1 177.5" style="fill: url(#a8fc670d-3397-4ba3-a647-735d0b76be4b)"/>
    <polygon points="703.6 165.3 739.8 125.5 814.7 125.5 814.4 122.2 739.1 122.7 703.3 162.3 703.6 165.3" style="fill: url(#b1e62de7-fe6b-4020-b356-62195d7ee65a)"/>
    <polygon points="703.6 165.3 708.1 164.8 741.4 128 811.4 127.8 814.7 125.5 739.8 125.5 703.6 165.3" style="fill: url(#a37b5b92-ab95-448c-8d12-4700b3caa3f5)"/>
    <polygon points="637.3 233.9 639.2 234.2 659.7 214.4 703 215.4 704.5 214.1 658.8 213.1 637.3 233.9" style="fill: url(#a9bbbed5-a1e5-433a-bcc2-f890c9d2c6ab)"/>
    <polygon points="637.5 248.1 677.7 248.6 705.2 227.9 656.5 227.7 637.5 248.1" style="fill: url(#e5e02b8d-247b-4bd9-b92f-8f4ccd7c1d1b)"/>
    <path d="M536,186.4s18.5-2.7,37.3.2c8.2,2.8,10.4,3.3,10.4,3.3L581,201.6l-43.2,1L516,204.2S519.8,191.1,536,186.4Z" style="fill: url(#ab1e80e2-8c26-4e5a-b217-1a9b316204c4)"/>
    <path d="M544.8,185.5s-10.8,7.6-9.8,17.4l2.8-.3a22.6,22.6,0,0,1,9.1-17.2Z" style="fill: url(#b0ee0f82-e020-4178-984e-66be4de1a6ec)"/>
    <path d="M564.5,186.2s10.8,7.2,13.5,14.7l2.3-.2s-3.6-8.8-14.5-14.5Z" style="fill: url(#bbe9cacf-9b2a-4226-9e24-6c0244c90706)"/>
    <polygon points="520.7 267.4 520.7 274.2 534.3 273.2 534.3 266.2 520.7 267.4" style="fill: #987e2e"/>
    <polygon points="520.5 278.1 534.2 276.9 534.7 301.9 520.5 302.7 520.5 278.1" style="fill: #987e2e"/>
    <polygon points="503.8 319.2 552.2 321.4 552.3 313.9 566.5 300.4 561.2 300.6 549.5 312.2 509.7 313.7 503.8 319.2" style="fill: url(#bd89a7c3-f530-4408-9af4-cd68b8ef8723)"/>
    <polygon points="504.2 311.2 507.8 311.2 507.8 312.4 549.2 310.1 560.7 298.7 565.2 298.6 566.5 298.7 565.8 294.7 558.8 294.7 549 303.4 509.3 305.1 504.2 311.2" style="fill: url(#a528b6ff-a36e-41ef-8afd-61780a7f23da)"/>
    <polygon points="707 406.2 737.8 411.9 841.9 399.1 841.9 387.9 707 406.2" style="fill: url(#b31825ba-1972-4d52-b2c1-86b58b3c626d)"/>
    <polygon points="707 398.7 707 406.2 841.9 388.1 841.9 376.4 707 398.7" style="fill: url(#f7407b8f-3282-4fb7-acca-a38e4eb4b1c4)"/>
    <polygon points="343.6 378 343.9 364.9 336.3 364.3 336.6 377.8 343.6 378" style="fill: url(#bcfb0ea6-daf4-45b2-9b0d-4b190dcedd6f)"/>
    <polygon points="332.4 377.5 332.7 364.3 325.1 363.8 325.4 377.2 332.4 377.5" style="fill: #987e2e;opacity: 0.44"/>
    <polygon points="343.6 404.9 343.9 391.7 336.3 391.2 336.6 404.6 343.6 404.9" style="fill: #987e2e;opacity: 0.44"/>
    <polygon points="332.4 404.3 332.7 391.2 325.1 390.6 325.4 404 332.4 404.3" style="fill: url(#ac149362-0ea7-4d5b-a661-ee0496eef487)"/>
    <path d="M339.7,354.6V337.8s-.6-5.1-7.9-5.3-7.5,3.9-7.5,3.9V354Z" style="fill: url(#abfc3e10-8b31-459b-bb52-f962c70809c0)"/>
    <g>
      <polygon points="336.8 345.3 333 345.1 333 341.9 336.8 342.1 336.8 345.3" style="fill: #987e2e;opacity: 0.44"/>
      <polygon points="331.2 345 327.4 344.8 327.4 341.6 331.2 341.8 331.2 345" style="fill: url(#afda62f7-fa74-4165-a8d6-a9119d5d6b35)"/>
      <polygon points="336.6 349.9 332.7 349.8 332.7 346.5 336.6 346.7 336.6 349.9" style="fill: #987e2e;opacity: 0.44"/>
      <polygon points="331 349.7 327.1 349.5 327.1 346.2 331 346.4 331 349.7" style="fill: #987e2e;opacity: 0.44"/>
    </g>
    <polygon points="239 281.8 237.3 302.5 241.8 305.3 243.2 287.1 239 281.8" style="fill: #e7d95c;opacity: 0.59"/>
    <polygon points="246 290.5 244.6 307.3 249.6 311.5 250.7 294.7 246 290.5" style="fill: url(#f8374e50-22a0-4a35-aa1d-115bd0ff4b0c)"/>
    <polygon points="253.3 296.7 252.1 313.7 256.1 317.1 256.9 300.6 253.3 296.7" style="fill: #987e2e;opacity: 0.44"/>
    <polygon points="251 324.3 247.7 395.9 243.8 396.2 247.4 321.3 251 324.3" style="fill: url(#fe81a38c-b751-4d15-b7c0-3298aa382921)"/>
    <polygon points="244.6 319.3 239.8 316.5 235.6 396.9 239.8 397 244.6 319.3" style="fill: url(#eb3b9860-d155-4d6b-b81f-652fc35e2451)"/>
    <polygon points="296.7 452.6 298.3 320.1 259.9 286.5 254.9 458.1 296.7 452.6" style="fill: url(#b581d0f0-9484-4780-b837-96f115331c15)"/>
    <polygon points="310.6 348.7 310 352.9 276 322.2 259.4 323.5 259.4 319.6 278.4 317.6 310.6 348.7" style="fill: url(#b52dd80f-24c7-47f0-952c-a19dabfa08e8)"/>
    <polygon points="309.8 352.3 296.9 352.3 259.4 323.5 275.6 322.9 309.8 352.3" style="fill: url(#efae2d62-3679-41f5-916d-f09d17bd447c)"/>
    <polygon points="265.3 348.4 263.9 369.1 269.5 372.2 270.6 352 265.3 348.4" style="fill: url(#b1520fa1-20c6-4157-8ca3-fe4c3e27595f)"/>
    <polygon points="275.4 354.3 274.3 373.8 279.9 376.6 280.7 358.5 275.4 354.3" style="fill: #987e2e;opacity: 0.44"/>
    <polygon points="273.1 399.4 272 419 277.6 420.9 278.5 401.8 273.1 399.4" style="fill: #987e2e;opacity: 0.44"/>
    <polygon points="285 360.3 284 378 288.8 380.8 289.6 363.5 285 360.3" style="fill: url(#bac490b1-4bc9-4bbf-881e-eb6d25683b8e)"/>
    <polygon points="293 364.9 292.1 381.9 295.2 384.7 295.8 367.4 293 364.9" style="fill: #e7d95c;opacity: 0.59"/>
    <polygon points="263.5 372.8 262.6 393.3 268.2 396.4 269.3 376.3 263.5 372.8" style="fill: url(#b8fcd9ee-2f4a-465f-9d95-7bfec3c85373)"/>
    <polygon points="284.3 383.3 283.2 400.1 287.7 402.7 288.8 385.6 284.3 383.3" style="fill: #987e2e;opacity: 0.44"/>
    <polygon points="283.1 403.8 282.4 421.6 287.3 423.2 287.5 405.7 283.1 403.8" style="fill: #987e2e;opacity: 0.44"/>
    <polygon points="292.1 387.2 291.2 403.6 294.2 405.7 294.8 389.7 292.1 387.2" style="fill: #e7d95c;opacity: 0.59"/>
    <polygon points="289.6 317.1 289.1 327.4 286 324.9 286.5 314.6 289.6 317.1" style="fill: url(#edee2db6-a8b7-4c47-b0c4-88114253846a)"/>
    <path d="M283.5,321.5V312s-2.6-3-3.1-3-.3,10.6-.3,10.6Z" style="fill: url(#f96a71ec-58f2-458c-801e-e6d98c34952b)"/>
    <path d="M124.1,312.9l7.9,5.8,2.1-24.3-7.9-4.8Zm-8.3-47.5c-.3,1.4-.9,6.9-1.6,13.2l9.4,5.9,3.3-33.4C119.9,243.7,116.5,261.4,115.8,265.4Zm13.4-11.3-2.7,32.3,7.9,4.4,1.3-14.5S135.7,264,129.2,254.1Zm-17.4,49.6,9.7,7.2,1.8-23.2-9.4-5.8C112.9,292.4,111.8,303.7,111.8,303.7Z" style="opacity: 0.13;fill: url(#b185a593-18ce-44b9-ac72-c3cc15235566)"/>
    <path d="M159.4,337.1l7.9,5.3,2.1-21.9-7.9-4.3ZM151,294.3c-.3,1.3-.9,6.2-1.5,12l9.3,5.3,3.3-30.1C155.2,274.8,151.8,290.7,151,294.3Zm13.4-10.1-2.7,29,8,4.1,1.3-13.1S170.9,293.1,164.4,284.2ZM147,328.9l9.7,6.4,1.9-20.8-9.4-5.3C148.1,318.6,147,328.9,147,328.9Z" style="fill: url(#b737f47d-a2ee-4d5e-969a-77fe4c4533cb)"/>
    <path d="M87.3,289.5l7.9,6.1,2.1-25.2-7.9-5Zm-8.4-49.3c-.2,1.5-.8,7.2-1.5,13.8l9.3,6.1,3.4-34.7C83.1,217.7,79.7,236,78.9,240.2Zm13.4-11.7L89.6,262l8,4.6,1.3-15S98.8,238.8,92.3,228.5ZM75,280l9.6,7.5,1.9-24.1-9.4-6.1C76,268.2,75,280,75,280Z" style="opacity: 0.41000000000000003;fill: url(#ab58fda0-785a-4f71-82ab-17b780d79f3d)"/>
    <polygon points="176.4 346.2 57.1 269.1 55.3 275.4 175.5 348.8 176.4 346.2" style="fill: url(#e47587e0-7ed0-4881-988f-c7c2203f0305)"/>
    <g>
      <polygon points="205.7 312.1 199 312.1 199.3 296.1 206 296.1 205.7 312.1" style="fill: #987e2e;opacity: 0.44"/>
      <polygon points="205.1 338.7 198.4 338.7 198.8 322.7 205.4 322.7 205.1 338.7" style="opacity: 0.13;fill: url(#ab87a169-d652-4d27-ae76-ede7ea7314cb)"/>
      <polygon points="204.5 364.1 197.9 364.1 198.2 348.1 204.9 348.1 204.5 364.1" style="opacity: 0.66;fill: url(#bcfae93a-ed38-48da-af96-b8d6bc333409)"/>
      <polygon points="204 388.1 197.3 388.1 197.7 372.1 204.3 372.1 204 388.1" style="opacity: 0.13;fill: url(#bf3f339b-99c3-42d9-9f0f-c74567817f16)"/>
    </g>
    <polygon points="144 474.4 149 371.4 53 324.4 47 493.4 144 474.4" style="fill: url(#e5f10626-d8b0-45ce-b94e-ab46608577e2)"/>
    <polygon points="118.7 473.9 121.9 394.8 77.9 381.7 73.8 482.9 118.7 473.9" style="fill: url(#b83434d8-778b-4552-bbe0-3577fcb491f4)"/>
  </g>
</svg>
