<svg id="Layer_1" data-name="Layer 1" xmlns="http://www.w3.org/2000/svg" viewBox="0 0 686.28 53.78"><defs><style>.cls-1{fill:#27ff4a;}</style></defs><title>Artboard 1</title><path class="cls-1" d="M339.65,53.62c-6.6,0-13.19,0-19.79,0-8.57-.06-14.81-5.47-16.14-13.91-.3-1.91-.13-2.12,1.75-2.12,2.5,0,5,0,7.5,0,.9,0,1.31.25,1.45,1.26.45,3.32,2.35,5,5.67,5q19.67,0,39.33,0c3.56,0,5.87-2.46,5.84-6.05a5.71,5.71,0,0,0-5.93-6c-13.16,0-26.31,0-39.47,0a16.06,16.06,0,0,1-15.69-11.58C301.61,10.91,309,.8,318.69.22c2-.12,4-.06,6-.06q17.32,0,34.65,0a16.44,16.44,0,0,1,16.41,14c.31,1.87.14,2.07-1.79,2.08-2.5,0-5,0-7.49,0-.85,0-1.31-.27-1.43-1.17a7.48,7.48,0,0,0-1.45-3.27,4.11,4.11,0,0,0-3-1.74,9.55,9.55,0,0,0-1.2-.07q-19.59,0-39.19,0a5.52,5.52,0,0,0-5.68,5.88c0,3.69,2.36,6.22,5.82,6.22,13,0,26.05,0,39.07,0,7.13,0,13,3.78,15.41,9.89,3.89,9.72-3.44,21.16-14,21.56-7,.27-14.09,0-21.14,0Z"/><path class="cls-1" d="M650,53.61c-6.56,0-13.11,0-19.67,0-8.6-.05-14.81-5.36-16.21-13.82-.33-2-.19-2.21,1.91-2.21,2.41,0,4.82,0,7.23,0,.93,0,1.41.2,1.55,1.29.44,3.31,2.36,4.94,5.71,4.94q19.59,0,39.19,0a5.59,5.59,0,0,0,5.93-6,5.71,5.71,0,0,0-6-6.1c-13.15,0-26.31,0-39.46,0a16.06,16.06,0,0,1-15.66-11.62C612,10.89,619.32.84,629,.2c1.69-.11,3.39-.06,5.08-.06,11.91,0,23.81,0,35.72,0a16.43,16.43,0,0,1,16.38,14c.3,1.81.11,2-1.7,2-2.45,0-4.91,0-7.36,0-1,0-1.6-.25-1.71-1.34a5.15,5.15,0,0,0-.47-1.52,5.05,5.05,0,0,0-5.18-3.41c-4.15.07-8.3,0-12.44,0H631c-3.13,0-4.92,1.27-5.79,4.08a6.84,6.84,0,0,0,2.43,7.26,5.58,5.58,0,0,0,3.32.77q19.47,0,38.93,0c6.11,0,11,2.4,14.25,7.67,6,9.88-1.17,23.27-12.82,23.76-7.07.3-14.17.06-21.26.06Z"/><path class="cls-1" d="M471.3,22.08v3c0,9,0,17.9,0,26.86,0,1.31-.43,1.71-1.69,1.67-2.5-.07-5,0-7.49,0-1.11,0-1.58-.28-1.58-1.51q0-25.25,0-50.5c0-1.11.36-1.51,1.46-1.49,2.54,0,5.09.07,7.63,0a2,2,0,0,1,2.08,1.24Q482.84,20.53,494,39.65c.24.42.49.82.75,1.25.53-.3.66-.8.9-1.2Q506.8,20.56,517.92,1.41a2.16,2.16,0,0,1,2.2-1.28c2.49.08,5,0,7.49,0,1,0,1.51.27,1.51,1.43q0,25.32,0,50.64c0,1-.35,1.44-1.39,1.42-2.59,0-5.17-.06-7.76,0-1.22,0-1.6-.39-1.6-1.62,0-9.58,0-19.15,0-28.73V22l-.21-.07L517.56,23c-5.49,9.66-11,19.31-16.46,29a2.72,2.72,0,0,1-2.84,1.62c-2.45-.11-4.91-.08-7.36,0a2.18,2.18,0,0,1-2.22-1.29q-8.54-15.16-17.15-30.29Z"/><path class="cls-1" d="M180.43.16c8.6,0,17.21,0,25.82,0a16,16,0,0,1,16,12.59A15.86,15.86,0,0,1,214,30.37c-.95.49-1,.88-.63,1.79,2.86,6.56,5.67,13.14,8.49,19.71.68,1.58.57,1.75-1.13,1.75-2.77,0-5.53,0-8.3,0a1.92,1.92,0,0,1-2.08-1.41c-2.63-6.32-5.35-12.6-8-18.91a1.51,1.51,0,0,0-1.65-1.11q-18.47.06-36.93,0c-1.1,0-1.28.34-1.27,1.33,0,6.15,0,12.3.05,18.44,0,1.34-.46,1.69-1.71,1.66-2.54-.07-5.08,0-7.62,0-1,0-1.43-.3-1.43-1.38q0-25.33,0-50.66c0-1.29.58-1.45,1.63-1.45Q166.92.17,180.43.16ZM185,22.43h20.72a6.66,6.66,0,0,0,2.5-.3,6.52,6.52,0,0,0,3.57-7.2,5.65,5.65,0,0,0-5.68-5c-14.17,0-28.34,0-42.51,0-.89,0-1.1.27-1.09,1.12.05,3.38.06,6.76,0,10.15,0,1,.22,1.25,1.24,1.25C170.8,22.41,177.88,22.43,185,22.43Z"/><path class="cls-1" d="M263.05,53.62H230.14c-1.8,0-1.81,0-1.81-1.77V45.7c0-1.88,0-1.88,2-1.88,8.6,0,17.21,0,25.82,0,1.28,0,1.69-.22,1.68-1.63q-.1-15.36,0-30.74c0-1.34-.38-1.56-1.62-1.55-8.61.06-17.21,0-25.82,0-2,0-2,0-2-2s.07-4.19,0-6.28c-.06-1.28.46-1.59,1.64-1.58,8.43,0,16.86,0,25.29,0H296c1.87,0,1.88,0,1.88,1.83V8.14c0,1.81,0,1.82-1.91,1.82H277c-2.46,0-4.91,0-7.36,0-.9,0-1.21.18-1.2,1.15q0,15.83,0,31.67c0,.93.31,1.07,1.14,1.07q13.11,0,26.22,0c2.1,0,2.1,0,2.1,2s-.08,4.1,0,6.15c.07,1.35-.48,1.65-1.71,1.65Q279.64,53.6,263.05,53.62Z"/><path class="cls-1" d="M35.05,53.78A50.41,50.41,0,0,1,15,49.64,24.92,24.92,0,0,1,2.57,15.76c2.92-6.1,8-9.9,14.14-12.36C23.52.67,30.66-.09,37.93,0A46.42,46.42,0,0,1,55.18,3.12C63,6.32,68.6,11.71,71.55,19.7c.62,1.7.51,1.84-1.27,1.84H62.12c-.59,0-1.14,0-1.49-.64C57.18,14.82,51.72,11.74,45,10.73c-7.54-1.13-15-.93-22.28,1.7a22.35,22.35,0,0,0-7.1,4.16,13.56,13.56,0,0,0,0,20.57,25.33,25.33,0,0,0,12.23,5.61,45.08,45.08,0,0,0,21-.63,18.94,18.94,0,0,0,11.48-8.79,2,2,0,0,1,2-1.13c2.71.05,5.44,0,8.16,0,1.4,0,1.58.27,1.11,1.6-3.38,9.34-10.19,15-19.48,17.9C47.13,53.33,41.94,53.75,35.05,53.78Z"/><path class="cls-1" d="M602.42,53.62c-1.51,0-3,0-4.54,0a1.76,1.76,0,0,1-1.8-1.07c-1.07-2-2.25-3.94-3.32-5.94a1.4,1.4,0,0,0-1.45-.85q-19.72,0-39.46,0a1.53,1.53,0,0,0-1.55.93c-1.07,2-2.23,4-3.31,5.94a1.72,1.72,0,0,1-1.71,1c-3.12,0-6.24,0-9.36,0-1.26,0-1.41-.28-.76-1.43q14.4-25.49,28.81-51a1.84,1.84,0,0,1,1.8-1.07q5.82,0,11.64,0a1.76,1.76,0,0,1,1.7,1Q593.53,26.72,608,52.25c.63,1.12.47,1.35-.88,1.37C605.54,53.63,604,53.62,602.42,53.62ZM586.71,35.91,571.55,9,556.4,35.91Z"/><path class="cls-1" d="M77.58,26.89c0-8.38,0-16.75,0-25.13,0-1.22.36-1.66,1.59-1.62,2.59.06,5.18,0,7.76,0,1,0,1.4.37,1.39,1.42,0,6.37,0,12.74,0,19.11,0,1,.2,1.35,1.3,1.34q22.27,0,44.55,0c1.08,0,1.3-.32,1.3-1.33,0-6.33,0-12.66,0-19,0-1.16.35-1.59,1.53-1.56,2.58.06,5.17,0,7.75,0,1.1,0,1.47.38,1.47,1.49q0,25.26,0,50.51c0,1.11-.36,1.51-1.46,1.49q-3.94-.06-7.89,0c-1,0-1.4-.36-1.4-1.41,0-6.42,0-12.83,0-19.25,0-1-.2-1.27-1.23-1.26q-22.35.06-44.69,0c-1,0-1.24.28-1.23,1.26,0,6.37,0,12.74,0,19.11,0,1.16-.36,1.59-1.53,1.56-2.59-.06-5.17,0-7.76,0-1.1,0-1.47-.37-1.46-1.48C77.6,43.73,77.58,35.31,77.58,26.89Z"/><path class="cls-1" d="M418.24.16H453c1.88,0,1.88,0,1.88,1.83V8c0,2,0,2-2,2H437.09c-4,0-7.94,0-11.91,0-1.24,0-1.62.22-1.62,1.56.06,13.4,0,26.81,0,40.22,0,1.91,0,1.91-1.94,1.91h-7c-1.8,0-1.81,0-1.81-1.77,0-13.45,0-26.91,0-40.36,0-1.33-.37-1.57-1.62-1.56-9.18.06-18.37,0-27.56,0-2.17,0-2.17,0-2.17-2.22,0-2,.07-4,0-6C381.5.45,382,.13,383.19.14Q400.73.19,418.24.16Z"/></svg>