<svg id="Layer_1" data-name="Layer 1" xmlns="http://www.w3.org/2000/svg" viewBox="0 0 154.52 124.87"><defs><style>.cls-1{fill:#fff;}</style></defs><title>Artboard 1</title><path class="cls-1" d="M40.69,88.74H29.38c-.65,0-.68,0-.68-.66V70.48c0-.64,0-.67.67-.67H51.72c.65,0,.67,0,.67.66s0,1.49,0,2.23c0,.46-.17.59-.61.59H46.44c-4.28,0-9.08,0-13.36,0-.49,0-.62.14-.6.61,0,1,0,2.05,0,3.08,0,.48.16.56.6.56,3.36,0,12.12,0,15.48,0h3.13c.69,0,.7,0,.7.68s0,1.48,0,2.22c0,.44-.15.58-.58.58-2.07,0-3.33,0-5.4,0C42.13,81,37.3,81,33,81c-.41,0-.54.1-.53.52,0,1.09,0,2.18,0,3.26,0,.43.13.53.54.53,6.25,0,12.23,0,18.48,0,.89,0,.89,0,.89.9v1.94c0,.61,0,.63-.66.63Z"/><path class="cls-1" d="M59.57,81l2.06-3.63c1.33-2.35,2.67-4.69,4-7a.89.89,0,0,1,.9-.53c.87,0,1.73,0,2.6,0a.86.86,0,0,1,.9.51q2.85,5.07,5.74,10.12l.31.52a.81.81,0,0,0,.1-.57V70.5c0-.67,0-.69.69-.69h2.46c.61,0,.64,0,.64.65V86.4c0,.61,0,1.23,0,1.84,0,.37-.14.51-.5.5-.9,0-1.8,0-2.7,0A.74.74,0,0,1,76,88.3q-3.92-6.83-7.84-13.65l-.31-.53a1.15,1.15,0,0,0-.34.47q-3.91,6.82-7.83,13.66a.84.84,0,0,1-.85.5c-.87,0-1.74,0-2.61,0-.39,0-.53-.14-.53-.53q0-8.94,0-17.87c0-.39.15-.54.53-.53.89,0,1.77,0,2.66,0,.58,0,.6,0,.61.63v10A1,1,0,0,0,59.57,81Z"/><path class="cls-1" d="M4.74,74.45V88c0,.71,0,.71-.72.71H1.51c-.39,0-.57-.11-.57-.53q0-8.94,0-17.88c0-.39.16-.53.54-.52q1.35,0,2.7,0a1.38,1.38,0,0,1,1,.35Q10.91,75,16.68,79.84l4.61,3.88c.17-.2.11-.41.11-.6V70.54c0-.73,0-.73.75-.73h2.5c.38,0,.54.11.54.51V88.25c0,.37-.15.5-.51.49H21.8a1.16,1.16,0,0,1-.83-.38L7.39,76.72Z"/><path class="cls-1" d="M1,42.26V33.52c0-.65,0-.67.67-.67H4.08c.63,0,.65,0,.65.68,0,2.17,0,4.35,0,6.52,0,.41.09.54.52.54q7.82,0,15.62,0c.45,0,.54-.15.54-.57,0-2.17,0-4.35,0-6.52,0-.62,0-.65.64-.65h2.51c.61,0,.63,0,.63.65q0,7.11,0,14.23c0,1.17,0,2.34,0,3.5,0,.41-.15.56-.55.55q-1.35,0-2.7,0c-.42,0-.55-.16-.54-.56,0-2.22,0-4.45,0-6.67,0-.41-.1-.53-.52-.53-5.21,0-10.42,0-15.62,0-.46,0-.55.15-.54.56,0,2.19,0,4.38,0,6.57,0,.59,0,.62-.61.63-.87,0-1.73,0-2.6,0-.44,0-.58-.15-.58-.58C1,48.22,1,45.24,1,42.26Z"/><path class="cls-1" d="M139.24,47.59c0-1.16,0-2.33,0-3.5a1,1,0,0,0-.33-.78q-5.21-4.91-10.37-9.83l-.24-.23c-.08-.08-.17-.16-.11-.29s.15-.1.24-.1H133c.26,0,.42.2.59.36,2.39,2.31,4.8,4.61,7.18,6.93.29.29.44.3.74,0,2.38-2.33,4.79-4.63,7.18-6.94a1.24,1.24,0,0,1,.92-.38c1.34,0,2.69,0,4,0,.15,0,.35-.06.43.1s-.12.3-.24.41q-5.19,4.93-10.4,9.87a1.17,1.17,0,0,0-.4.94c0,2.32,0,4.64,0,7,0,.61,0,.64-.64.64-.88,0-1.77,0-2.65,0-.36,0-.5-.14-.5-.51C139.25,50.05,139.24,48.82,139.24,47.59Z"/><path class="cls-1" d="M89.09,37.3a5.69,5.69,0,0,0-5.67-4.44c-3,0-6,0-9,0-3.15,0-15.59,0-18.74,0-.46,0-.62.15-.61.6,0,.9,0,1.8,0,2.7v15c0,.61,0,.64.59.65h2.55c.61,0,.64,0,.64-.65,0-2.12,0-4.25,0-6.38,0-.42.09-.56.54-.55H81.84c.69,0,1.39,0,2.08,0A5.69,5.69,0,0,0,89.09,37.3Zm-5.74,3.45c-2.43,0-4.86,0-7.28,0s-14.18,0-16.62,0c-.41,0-.55-.1-.54-.53,0-1.15,0-2.3,0-3.45,0-.36.12-.45.46-.45,4.91,0,19.1,0,24,0a2.23,2.23,0,0,1,0,4.44Z"/><path class="cls-1" d="M127.64,37.29A5.68,5.68,0,0,0,122,32.86c-3,0-6,0-9,0s-17.94,0-21.1,0c-.45,0-.61.15-.6.61,0,1,0,2,0,3.07V51.13c0,.62,0,.64.63.65h2.51c.61,0,.64,0,.64-.65,0-2.12,0-4.25,0-6.38,0-.42.1-.56.55-.55h24.83c.66,0,1.33,0,2,0A5.69,5.69,0,0,0,127.64,37.29Zm-5.75,3.46c-2.41,0-4.82,0-7.23,0s-16.56,0-19,0c-.41,0-.54-.11-.53-.53,0-1.14,0-2.27,0-3.41,0-.35.08-.5.47-.5,4.9,0,21.44,0,26.34,0a2.23,2.23,0,0,1,0,4.44Z"/><path class="cls-1" d="M53.07,51.23l-2.86-5.06Q46.6,39.77,43,33.36a.87.87,0,0,0-.9-.52c-.61,0-1.23,0-1.85,0s-1.32,0-2,0a.73.73,0,0,0-.76.43q-5.05,9-10.13,17.95c-.26.46-.21.54.3.54h3.18a.69.69,0,0,0,.71-.41c.37-.69.77-1.35,1.13-2a.58.58,0,0,1,.6-.34H47.15a.58.58,0,0,1,.6.34c.37.69.77,1.37,1.15,2.06a.65.65,0,0,0,.64.38h3.22C53.28,51.77,53.33,51.69,53.07,51.23ZM34.86,45.5c1.78-3.17,3.55-6.3,5.36-9.53l5.36,9.53Z"/><path class="cls-1" d="M40.66,124.86H29.4c-.72,0-.73,0-.73-.7V106.62c0-.66,0-.68.66-.68H52c.65,0,.67,0,.67.66s0,1.48,0,2.22c0,.46-.16.6-.6.59H46.35c-4.44,0-8.87,0-13.3,0-.49,0-.62.12-.61.6,0,1,0,2,0,3.08,0,.47.15.56.6.56H51.73c.89,0,.89,0,.89.91,0,.67,0,1.33,0,2,0,.43-.14.59-.57.58-1.53,0-3.06,0-4.59,0-4.83,0-9.66,0-14.49,0-.4,0-.55.08-.53.51q0,1.61,0,3.21c0,.46.11.59.57.58H51.67c1.09,0,.94,0,.95,1,0,.65,0,1.29,0,1.94,0,.46-.17.59-.61.59Z"/><path class="cls-1" d="M12,120.68c0-1.14,0-2.27,0-3.41a1.17,1.17,0,0,0-.4-.94q-5.16-4.87-10.3-9.77l-.24-.23c-.08-.08-.18-.16-.12-.28s.18-.11.29-.11H5.7a.9.9,0,0,1,.64.37q3.6,3.45,7.18,6.93c.29.27.43.31.74,0,2.37-2.31,4.77-4.6,7.15-6.9a1.27,1.27,0,0,1,1-.42c1.31,0,2.62,0,3.93,0,.17,0,.42-.09.5.14s-.16.29-.28.4q-5.18,4.92-10.37,9.84a1.18,1.18,0,0,0-.41.94c0,2.28,0,4.57,0,6.85,0,.75,0,.75-.77.75s-1.64,0-2.46,0c-.41,0-.56-.14-.56-.55C12,123.11,12,121.89,12,120.68Z"/><path class="cls-1" d="M103.15,117.39c-.18-.39-.19-.58.26-.81a5.62,5.62,0,0,0,2.9-5.83,5.69,5.69,0,0,0-5.71-4.81H81.9c-.41,0-.59.12-.59.56q0,8.92,0,17.84c0,.42.17.55.57.54.86,0,1.73,0,2.6,0,.58,0,.62,0,.62-.61,0-2.15,0-4.29,0-6.43,0-.4.09-.54.52-.54q6.48,0,13,0a.56.56,0,0,1,.62.41c.93,2.22,1.89,4.43,2.82,6.66a.71.71,0,0,0,.78.51c1,0,1.92,0,2.89,0,.61,0,.65,0,.41-.61Q104.63,120.82,103.15,117.39Zm-1.54-3.86a2,2,0,0,1-1.26.29c-4.6,0-9.21,0-13.81,0-.45,0-1,.19-1.33-.09s-.09-.87-.1-1.32c0-.83,0-1.67,0-2.5,0-.39.11-.51.5-.51,2.53,0,5.05,0,7.57,0h7.19a2,2,0,0,1,2.11,1.51A2.37,2.37,0,0,1,101.61,113.53Z"/><path class="cls-1" d="M79.79,124.34q-5.08-9-10.16-18a.73.73,0,0,0-.72-.42c-1.32,0-2.65,0-4,0a.74.74,0,0,0-.72.42l-10.16,18c-.24.44-.19.53.29.53h3.27a.64.64,0,0,0,.63-.4c.38-.69.78-1.37,1.15-2.06a.56.56,0,0,1,.56-.33q7,0,13.92,0a.58.58,0,0,1,.58.37c.37.68.76,1.34,1.13,2a.67.67,0,0,0,.68.4c.53,0,1.07,0,1.61,0s1.07,0,1.61,0S80,124.77,79.79,124.34Zm-18.23-5.75,5.36-9.53,5.37,9.53Z"/><path class="cls-1" d="M0,13.21c0-3.08,2.79-5.3,6.29-5.32L1.65,3.32V0H18V4.26H8.83l7.05,6.89A16.07,16.07,0,0,0,19,7.28l3,3.27a14.18,14.18,0,0,1-2.85,3.73l4.13,4H16.92l-1.44-1.41a15.72,15.72,0,0,1-7,1.72C5.38,18.59,0,17.76,0,13.21Zm12.17.45L7.62,9.19C5.38,9,3.52,10,3.52,11.44c0,2.11,2,3,5.15,3A8.59,8.59,0,0,0,12.17,13.66Z"/><path class="cls-1" d="M31.94,7.28H153.75a.76.76,0,0,1,.76.76v.19a.76.76,0,0,1-.76.76H31.94a0,0,0,0,1,0,0V7.28A0,0,0,0,1,31.94,7.28Z"/></svg>